<?xml version="1.0" standalone="no"?>
<!DOCTYPE svg PUBLIC "-//W3C//DTD SVG 20010904//EN"
 "http://www.w3.org/TR/2001/REC-SVG-20010904/DTD/svg10.dtd">
<svg version="1.0" xmlns="http://www.w3.org/2000/svg"
 width="1024.000000pt" height="1024.000000pt" viewBox="0 0 1024.000000 1024.000000"
 preserveAspectRatio="xMidYMid meet">
<metadata>
Created by potrace 1.11, written by Peter Selinger 2001-2013
</metadata>
<g transform="translate(0.000000,1024.000000) scale(0.100000,-0.100000)"
fill="#000000" stroke="none">
<path d="M4898 8915 c-2 -1 -46 -5 -99 -9 -53 -4 -105 -8 -116 -10 -11 -3 -44
-7 -74 -11 -442 -53 -976 -233 -1364 -458 -38 -22 -79 -45 -90 -51 -11 -6 -79
-50 -151 -99 -196 -131 -380 -283 -560 -462 -262 -261 -436 -486 -628 -815
-98 -167 -239 -483 -306 -688 -40 -122 -103 -359 -115 -435 -3 -17 -10 -54
-15 -82 -13 -67 -18 -99 -26 -170 -3 -33 -8 -69 -10 -80 -25 -132 -24 -705 1
-855 2 -14 7 -49 10 -79 4 -30 9 -63 11 -75 2 -12 11 -59 19 -106 69 -387 232
-835 422 -1164 26 -45 52 -90 58 -101 6 -11 37 -60 69 -109 230 -353 526 -673
866 -937 81 -64 339 -239 370 -252 8 -4 38 -20 65 -37 115 -70 542 -270 577
-270 4 0 19 -5 35 -12 15 -6 33 -12 38 -14 6 -2 39 -12 75 -24 55 -18 221 -64
270 -75 93 -22 208 -45 265 -54 64 -10 87 -13 187 -26 196 -26 757 -26 858 0
8 2 44 7 80 11 80 9 85 9 135 18 504 90 956 264 1384 531 72 45 269 185 325
230 124 100 227 193 346 314 462 465 787 1024 964 1656 29 105 92 415 100 495
3 30 8 64 10 75 12 63 21 237 21 430 0 236 -6 333 -30 519 -14 107 -21 149
-40 236 -2 14 -10 50 -16 80 -13 66 -46 195 -59 230 -4 14 -21 66 -35 115 -68
225 -239 599 -370 805 -264 417 -539 724 -918 1026 -166 133 -426 295 -646
403 -309 152 -695 280 -988 327 -26 5 -50 9 -53 9 -11 3 -97 17 -120 20 -14 2
-56 7 -95 11 -38 3 -81 8 -95 11 -29 4 -537 13 -542 8z"/>
</g>
</svg>
